<mxfile host="app.diagrams.net" agent="Mozilla/5.0 (Windows NT 10.0; Win64; x64) AppleWebKit/537.36 (KHTML, like Gecko) Chrome/138.0.0.0 Safari/537.36" version="27.1.6">
  <diagram name="Page-1" id="QGSndoCz0c_UD8kTjIh7">
    <mxGraphModel dx="1102" dy="928" grid="1" gridSize="10" guides="1" tooltips="1" connect="1" arrows="1" fold="1" page="1" pageScale="1" pageWidth="850" pageHeight="1100" math="0" shadow="0">
      <root>
        <mxCell id="0" />
        <mxCell id="1" parent="0" />
        <mxCell id="wAkDLAA1KfVmWwrZRg8X-2" value="" style="swimlane;startSize=0;" parent="1" vertex="1">
          <mxGeometry x="210" y="120" width="290" height="1190" as="geometry" />
        </mxCell>
        <mxCell id="wAkDLAA1KfVmWwrZRg8X-3" value="&lt;b&gt;Airbnb Backend system&lt;/b&gt;" style="text;html=1;align=center;verticalAlign=middle;resizable=0;points=[];autosize=1;strokeColor=none;fillColor=none;" parent="wAkDLAA1KfVmWwrZRg8X-2" vertex="1">
          <mxGeometry x="65" width="160" height="30" as="geometry" />
        </mxCell>
        <mxCell id="wAkDLAA1KfVmWwrZRg8X-4" value="Search listing" style="ellipse;whiteSpace=wrap;html=1;" parent="wAkDLAA1KfVmWwrZRg8X-2" vertex="1">
          <mxGeometry y="40" width="120" height="80" as="geometry" />
        </mxCell>
        <mxCell id="wAkDLAA1KfVmWwrZRg8X-5" value="view listing details" style="ellipse;whiteSpace=wrap;html=1;" parent="wAkDLAA1KfVmWwrZRg8X-2" vertex="1">
          <mxGeometry y="130" width="120" height="80" as="geometry" />
        </mxCell>
        <mxCell id="wAkDLAA1KfVmWwrZRg8X-6" value="manage users" style="ellipse;whiteSpace=wrap;html=1;" parent="wAkDLAA1KfVmWwrZRg8X-2" vertex="1">
          <mxGeometry x="170" y="40" width="120" height="80" as="geometry" />
        </mxCell>
        <mxCell id="wAkDLAA1KfVmWwrZRg8X-7" value="manage listings" style="ellipse;whiteSpace=wrap;html=1;" parent="wAkDLAA1KfVmWwrZRg8X-2" vertex="1">
          <mxGeometry x="170" y="130" width="120" height="80" as="geometry" />
        </mxCell>
        <mxCell id="wAkDLAA1KfVmWwrZRg8X-8" value="make booking" style="ellipse;whiteSpace=wrap;html=1;" parent="wAkDLAA1KfVmWwrZRg8X-2" vertex="1">
          <mxGeometry y="220" width="120" height="80" as="geometry" />
        </mxCell>
        <mxCell id="wAkDLAA1KfVmWwrZRg8X-9" value="manage Bookings" style="ellipse;whiteSpace=wrap;html=1;" parent="wAkDLAA1KfVmWwrZRg8X-2" vertex="1">
          <mxGeometry x="170" y="330" width="120" height="80" as="geometry" />
        </mxCell>
        <mxCell id="wAkDLAA1KfVmWwrZRg8X-10" value="manage payments" style="ellipse;whiteSpace=wrap;html=1;" parent="wAkDLAA1KfVmWwrZRg8X-2" vertex="1">
          <mxGeometry x="170" y="420" width="120" height="80" as="geometry" />
        </mxCell>
        <mxCell id="wAkDLAA1KfVmWwrZRg8X-11" value="cancel booking" style="ellipse;whiteSpace=wrap;html=1;" parent="wAkDLAA1KfVmWwrZRg8X-2" vertex="1">
          <mxGeometry y="310" width="120" height="80" as="geometry" />
        </mxCell>
        <mxCell id="wAkDLAA1KfVmWwrZRg8X-12" value="make payments" style="ellipse;whiteSpace=wrap;html=1;" parent="wAkDLAA1KfVmWwrZRg8X-2" vertex="1">
          <mxGeometry y="400" width="120" height="80" as="geometry" />
        </mxCell>
        <mxCell id="wAkDLAA1KfVmWwrZRg8X-34" value="view reports" style="ellipse;whiteSpace=wrap;html=1;" parent="wAkDLAA1KfVmWwrZRg8X-2" vertex="1">
          <mxGeometry x="170" y="230" width="120" height="80" as="geometry" />
        </mxCell>
        <mxCell id="wAkDLAA1KfVmWwrZRg8X-42" value="process payment" style="ellipse;whiteSpace=wrap;html=1;" parent="wAkDLAA1KfVmWwrZRg8X-2" vertex="1">
          <mxGeometry x="170" y="520" width="120" height="80" as="geometry" />
        </mxCell>
        <mxCell id="wAkDLAA1KfVmWwrZRg8X-43" value="send payment confirmation" style="ellipse;whiteSpace=wrap;html=1;" parent="wAkDLAA1KfVmWwrZRg8X-2" vertex="1">
          <mxGeometry x="170" y="620" width="120" height="80" as="geometry" />
        </mxCell>
        <mxCell id="wAkDLAA1KfVmWwrZRg8X-44" value="issues refund" style="ellipse;whiteSpace=wrap;html=1;" parent="wAkDLAA1KfVmWwrZRg8X-2" vertex="1">
          <mxGeometry x="170" y="710" width="120" height="80" as="geometry" />
        </mxCell>
        <mxCell id="hJYtEqxGo61rZ7bhVDWF-17" style="edgeStyle=orthogonalEdgeStyle;rounded=0;orthogonalLoop=1;jettySize=auto;html=1;exitX=0;exitY=0.5;exitDx=0;exitDy=0;" edge="1" parent="wAkDLAA1KfVmWwrZRg8X-2" source="hJYtEqxGo61rZ7bhVDWF-1">
          <mxGeometry relative="1" as="geometry">
            <mxPoint x="-160" y="130" as="targetPoint" />
          </mxGeometry>
        </mxCell>
        <mxCell id="hJYtEqxGo61rZ7bhVDWF-1" value="leave review" style="ellipse;whiteSpace=wrap;html=1;" vertex="1" parent="wAkDLAA1KfVmWwrZRg8X-2">
          <mxGeometry y="490" width="120" height="80" as="geometry" />
        </mxCell>
        <mxCell id="hJYtEqxGo61rZ7bhVDWF-4" value="update profile" style="ellipse;whiteSpace=wrap;html=1;" vertex="1" parent="wAkDLAA1KfVmWwrZRg8X-2">
          <mxGeometry y="680" width="120" height="80" as="geometry" />
        </mxCell>
        <mxCell id="hJYtEqxGo61rZ7bhVDWF-20" style="edgeStyle=orthogonalEdgeStyle;rounded=0;orthogonalLoop=1;jettySize=auto;html=1;exitX=0;exitY=1;exitDx=0;exitDy=0;" edge="1" parent="wAkDLAA1KfVmWwrZRg8X-2" source="hJYtEqxGo61rZ7bhVDWF-3">
          <mxGeometry relative="1" as="geometry">
            <mxPoint x="-140" y="750" as="targetPoint" />
          </mxGeometry>
        </mxCell>
        <mxCell id="hJYtEqxGo61rZ7bhVDWF-3" value="register/login/logout" style="ellipse;whiteSpace=wrap;html=1;" vertex="1" parent="wAkDLAA1KfVmWwrZRg8X-2">
          <mxGeometry y="590" width="120" height="80" as="geometry" />
        </mxCell>
        <mxCell id="hJYtEqxGo61rZ7bhVDWF-22" style="edgeStyle=orthogonalEdgeStyle;rounded=0;orthogonalLoop=1;jettySize=auto;html=1;exitX=0;exitY=0.5;exitDx=0;exitDy=0;" edge="1" parent="wAkDLAA1KfVmWwrZRg8X-2" source="hJYtEqxGo61rZ7bhVDWF-5">
          <mxGeometry relative="1" as="geometry">
            <mxPoint x="-130" y="830" as="targetPoint" />
          </mxGeometry>
        </mxCell>
        <mxCell id="hJYtEqxGo61rZ7bhVDWF-5" value="add/edit/delete listing" style="ellipse;whiteSpace=wrap;html=1;" vertex="1" parent="wAkDLAA1KfVmWwrZRg8X-2">
          <mxGeometry y="770" width="120" height="80" as="geometry" />
        </mxCell>
        <mxCell id="hJYtEqxGo61rZ7bhVDWF-6" value="view bookings" style="ellipse;whiteSpace=wrap;html=1;" vertex="1" parent="wAkDLAA1KfVmWwrZRg8X-2">
          <mxGeometry y="870" width="120" height="80" as="geometry" />
        </mxCell>
        <mxCell id="hJYtEqxGo61rZ7bhVDWF-7" value="Accept/ Decline booking" style="ellipse;whiteSpace=wrap;html=1;" vertex="1" parent="wAkDLAA1KfVmWwrZRg8X-2">
          <mxGeometry y="960" width="120" height="80" as="geometry" />
        </mxCell>
        <mxCell id="hJYtEqxGo61rZ7bhVDWF-25" style="edgeStyle=orthogonalEdgeStyle;rounded=0;orthogonalLoop=1;jettySize=auto;html=1;exitX=0;exitY=0.5;exitDx=0;exitDy=0;" edge="1" parent="wAkDLAA1KfVmWwrZRg8X-2" source="hJYtEqxGo61rZ7bhVDWF-10">
          <mxGeometry relative="1" as="geometry">
            <mxPoint x="-150" y="820" as="targetPoint" />
          </mxGeometry>
        </mxCell>
        <mxCell id="hJYtEqxGo61rZ7bhVDWF-10" value="Respond to reviews" style="ellipse;whiteSpace=wrap;html=1;" vertex="1" parent="wAkDLAA1KfVmWwrZRg8X-2">
          <mxGeometry y="1050" width="120" height="80" as="geometry" />
        </mxCell>
        <mxCell id="wAkDLAA1KfVmWwrZRg8X-13" value="Guest" style="shape=umlActor;verticalLabelPosition=bottom;verticalAlign=top;html=1;outlineConnect=0;" parent="1" vertex="1">
          <mxGeometry x="50" y="160" width="30" height="60" as="geometry" />
        </mxCell>
        <mxCell id="wAkDLAA1KfVmWwrZRg8X-15" value="Host" style="shape=umlActor;verticalLabelPosition=bottom;verticalAlign=top;html=1;outlineConnect=0;" parent="1" vertex="1">
          <mxGeometry x="50" y="880" width="30" height="60" as="geometry" />
        </mxCell>
        <mxCell id="wAkDLAA1KfVmWwrZRg8X-36" style="edgeStyle=orthogonalEdgeStyle;rounded=0;orthogonalLoop=1;jettySize=auto;html=1;exitX=0;exitY=0.3333333333333333;exitDx=0;exitDy=0;exitPerimeter=0;entryX=1;entryY=0.5;entryDx=0;entryDy=0;" parent="1" source="wAkDLAA1KfVmWwrZRg8X-35" target="wAkDLAA1KfVmWwrZRg8X-6" edge="1">
          <mxGeometry relative="1" as="geometry" />
        </mxCell>
        <mxCell id="wAkDLAA1KfVmWwrZRg8X-40" style="edgeStyle=orthogonalEdgeStyle;rounded=0;orthogonalLoop=1;jettySize=auto;html=1;exitX=0.5;exitY=0;exitDx=0;exitDy=0;exitPerimeter=0;entryX=1.002;entryY=0.563;entryDx=0;entryDy=0;entryPerimeter=0;" parent="1" source="wAkDLAA1KfVmWwrZRg8X-35" target="wAkDLAA1KfVmWwrZRg8X-9" edge="1">
          <mxGeometry relative="1" as="geometry" />
        </mxCell>
        <mxCell id="wAkDLAA1KfVmWwrZRg8X-35" value="Admin" style="shape=umlActor;verticalLabelPosition=bottom;verticalAlign=top;html=1;outlineConnect=0;" parent="1" vertex="1">
          <mxGeometry x="730" y="230" width="30" height="60" as="geometry" />
        </mxCell>
        <mxCell id="wAkDLAA1KfVmWwrZRg8X-39" style="edgeStyle=orthogonalEdgeStyle;rounded=0;orthogonalLoop=1;jettySize=auto;html=1;exitX=0.5;exitY=0.5;exitDx=0;exitDy=0;exitPerimeter=0;" parent="1" source="wAkDLAA1KfVmWwrZRg8X-35" target="wAkDLAA1KfVmWwrZRg8X-10" edge="1">
          <mxGeometry relative="1" as="geometry">
            <Array as="points">
              <mxPoint x="615" y="260" />
              <mxPoint x="615" y="580" />
            </Array>
          </mxGeometry>
        </mxCell>
        <mxCell id="wAkDLAA1KfVmWwrZRg8X-45" value="Payment Gateway(External system)" style="shape=umlActor;verticalLabelPosition=bottom;verticalAlign=top;html=1;outlineConnect=0;" parent="1" vertex="1">
          <mxGeometry x="710" y="670" width="30" height="60" as="geometry" />
        </mxCell>
        <mxCell id="wAkDLAA1KfVmWwrZRg8X-48" style="edgeStyle=orthogonalEdgeStyle;rounded=0;orthogonalLoop=1;jettySize=auto;html=1;exitX=0;exitY=1;exitDx=0;exitDy=0;exitPerimeter=0;entryX=1;entryY=0.625;entryDx=0;entryDy=0;entryPerimeter=0;" parent="1" source="wAkDLAA1KfVmWwrZRg8X-45" target="wAkDLAA1KfVmWwrZRg8X-44" edge="1">
          <mxGeometry relative="1" as="geometry" />
        </mxCell>
        <mxCell id="hJYtEqxGo61rZ7bhVDWF-8" style="edgeStyle=orthogonalEdgeStyle;rounded=0;orthogonalLoop=1;jettySize=auto;html=1;exitX=0;exitY=0.3333333333333333;exitDx=0;exitDy=0;exitPerimeter=0;entryX=1;entryY=0.462;entryDx=0;entryDy=0;entryPerimeter=0;" edge="1" parent="1" source="wAkDLAA1KfVmWwrZRg8X-45" target="wAkDLAA1KfVmWwrZRg8X-2">
          <mxGeometry relative="1" as="geometry" />
        </mxCell>
        <mxCell id="hJYtEqxGo61rZ7bhVDWF-9" style="edgeStyle=orthogonalEdgeStyle;rounded=0;orthogonalLoop=1;jettySize=auto;html=1;exitX=0.25;exitY=0.1;exitDx=0;exitDy=0;exitPerimeter=0;entryX=0.991;entryY=0.566;entryDx=0;entryDy=0;entryPerimeter=0;" edge="1" parent="1" source="wAkDLAA1KfVmWwrZRg8X-45" target="wAkDLAA1KfVmWwrZRg8X-2">
          <mxGeometry relative="1" as="geometry">
            <Array as="points">
              <mxPoint x="718" y="700" />
              <mxPoint x="710" y="700" />
              <mxPoint x="710" y="793" />
            </Array>
          </mxGeometry>
        </mxCell>
        <mxCell id="hJYtEqxGo61rZ7bhVDWF-12" style="edgeStyle=orthogonalEdgeStyle;rounded=0;orthogonalLoop=1;jettySize=auto;html=1;exitX=0;exitY=0.5;exitDx=0;exitDy=0;entryX=0.75;entryY=0.1;entryDx=0;entryDy=0;entryPerimeter=0;" edge="1" parent="1" source="wAkDLAA1KfVmWwrZRg8X-4" target="wAkDLAA1KfVmWwrZRg8X-13">
          <mxGeometry relative="1" as="geometry" />
        </mxCell>
        <mxCell id="hJYtEqxGo61rZ7bhVDWF-13" style="edgeStyle=orthogonalEdgeStyle;rounded=0;orthogonalLoop=1;jettySize=auto;html=1;exitX=0;exitY=0.5;exitDx=0;exitDy=0;" edge="1" parent="1" source="wAkDLAA1KfVmWwrZRg8X-5" target="wAkDLAA1KfVmWwrZRg8X-13">
          <mxGeometry relative="1" as="geometry">
            <Array as="points">
              <mxPoint x="50" y="290" />
            </Array>
          </mxGeometry>
        </mxCell>
        <mxCell id="hJYtEqxGo61rZ7bhVDWF-15" style="edgeStyle=orthogonalEdgeStyle;rounded=0;orthogonalLoop=1;jettySize=auto;html=1;entryX=0;entryY=1;entryDx=0;entryDy=0;entryPerimeter=0;" edge="1" parent="1" source="wAkDLAA1KfVmWwrZRg8X-11" target="wAkDLAA1KfVmWwrZRg8X-13">
          <mxGeometry relative="1" as="geometry" />
        </mxCell>
        <mxCell id="hJYtEqxGo61rZ7bhVDWF-16" style="edgeStyle=orthogonalEdgeStyle;rounded=0;orthogonalLoop=1;jettySize=auto;html=1;exitX=0;exitY=0.5;exitDx=0;exitDy=0;" edge="1" parent="1" source="wAkDLAA1KfVmWwrZRg8X-12" target="wAkDLAA1KfVmWwrZRg8X-13">
          <mxGeometry relative="1" as="geometry">
            <Array as="points">
              <mxPoint x="50" y="560" />
            </Array>
          </mxGeometry>
        </mxCell>
        <mxCell id="hJYtEqxGo61rZ7bhVDWF-18" style="edgeStyle=orthogonalEdgeStyle;rounded=0;orthogonalLoop=1;jettySize=auto;html=1;exitX=0;exitY=0.5;exitDx=0;exitDy=0;entryX=1;entryY=1;entryDx=0;entryDy=0;entryPerimeter=0;" edge="1" parent="1" source="hJYtEqxGo61rZ7bhVDWF-3" target="wAkDLAA1KfVmWwrZRg8X-13">
          <mxGeometry relative="1" as="geometry">
            <Array as="points">
              <mxPoint x="50" y="750" />
              <mxPoint x="50" y="220" />
            </Array>
          </mxGeometry>
        </mxCell>
        <mxCell id="hJYtEqxGo61rZ7bhVDWF-21" style="edgeStyle=orthogonalEdgeStyle;rounded=0;orthogonalLoop=1;jettySize=auto;html=1;exitX=0;exitY=1;exitDx=0;exitDy=0;entryX=1;entryY=0.3333333333333333;entryDx=0;entryDy=0;entryPerimeter=0;" edge="1" parent="1" source="hJYtEqxGo61rZ7bhVDWF-4" target="wAkDLAA1KfVmWwrZRg8X-15">
          <mxGeometry relative="1" as="geometry">
            <Array as="points">
              <mxPoint x="70" y="868" />
              <mxPoint x="70" y="900" />
            </Array>
          </mxGeometry>
        </mxCell>
        <mxCell id="hJYtEqxGo61rZ7bhVDWF-23" style="edgeStyle=orthogonalEdgeStyle;rounded=0;orthogonalLoop=1;jettySize=auto;html=1;entryX=0.667;entryY=1.167;entryDx=0;entryDy=0;entryPerimeter=0;" edge="1" parent="1" source="hJYtEqxGo61rZ7bhVDWF-6" target="wAkDLAA1KfVmWwrZRg8X-15">
          <mxGeometry relative="1" as="geometry">
            <Array as="points">
              <mxPoint x="60" y="1030" />
              <mxPoint x="60" y="950" />
            </Array>
          </mxGeometry>
        </mxCell>
        <mxCell id="hJYtEqxGo61rZ7bhVDWF-24" style="edgeStyle=orthogonalEdgeStyle;rounded=0;orthogonalLoop=1;jettySize=auto;html=1;exitX=0;exitY=0.5;exitDx=0;exitDy=0;" edge="1" parent="1" source="hJYtEqxGo61rZ7bhVDWF-7" target="wAkDLAA1KfVmWwrZRg8X-15">
          <mxGeometry relative="1" as="geometry">
            <Array as="points">
              <mxPoint x="60" y="1120" />
            </Array>
          </mxGeometry>
        </mxCell>
        <mxCell id="hJYtEqxGo61rZ7bhVDWF-19" style="edgeStyle=orthogonalEdgeStyle;rounded=0;orthogonalLoop=1;jettySize=auto;html=1;exitX=0;exitY=0.5;exitDx=0;exitDy=0;" edge="1" parent="1">
          <mxGeometry relative="1" as="geometry">
            <mxPoint x="50" y="240" as="targetPoint" />
            <mxPoint x="190" y="840" as="sourcePoint" />
            <Array as="points">
              <mxPoint x="51" y="840" />
              <mxPoint x="51" y="240" />
            </Array>
          </mxGeometry>
        </mxCell>
        <mxCell id="hJYtEqxGo61rZ7bhVDWF-14" style="edgeStyle=orthogonalEdgeStyle;rounded=0;orthogonalLoop=1;jettySize=auto;html=1;" edge="1" parent="1" source="wAkDLAA1KfVmWwrZRg8X-8">
          <mxGeometry relative="1" as="geometry">
            <mxPoint x="50" y="220" as="targetPoint" />
            <mxPoint x="190" y="370" as="sourcePoint" />
            <Array as="points">
              <mxPoint x="51" y="370" />
              <mxPoint x="51" y="220" />
            </Array>
          </mxGeometry>
        </mxCell>
        <mxCell id="hJYtEqxGo61rZ7bhVDWF-26" style="edgeStyle=orthogonalEdgeStyle;rounded=0;orthogonalLoop=1;jettySize=auto;html=1;exitX=0.25;exitY=0.1;exitDx=0;exitDy=0;exitPerimeter=0;entryX=0.988;entryY=0.146;entryDx=0;entryDy=0;entryPerimeter=0;" edge="1" parent="1" source="wAkDLAA1KfVmWwrZRg8X-35" target="wAkDLAA1KfVmWwrZRg8X-2">
          <mxGeometry relative="1" as="geometry" />
        </mxCell>
        <mxCell id="hJYtEqxGo61rZ7bhVDWF-27" style="edgeStyle=orthogonalEdgeStyle;rounded=0;orthogonalLoop=1;jettySize=auto;html=1;exitX=0;exitY=1;exitDx=0;exitDy=0;exitPerimeter=0;entryX=0.994;entryY=0.235;entryDx=0;entryDy=0;entryPerimeter=0;" edge="1" parent="1" source="wAkDLAA1KfVmWwrZRg8X-35" target="wAkDLAA1KfVmWwrZRg8X-2">
          <mxGeometry relative="1" as="geometry">
            <Array as="points">
              <mxPoint x="730" y="360" />
              <mxPoint x="620" y="360" />
              <mxPoint x="620" y="400" />
            </Array>
          </mxGeometry>
        </mxCell>
      </root>
    </mxGraphModel>
  </diagram>
</mxfile>
